<svg xmlns="http://www.w3.org/2000/svg" xmlns:xlink="http://www.w3.org/1999/xlink" width="318" zoomAndPan="magnify" viewBox="0 0 238.5 38.249999" height="51" preserveAspectRatio="xMidYMid meet" version="1.0"><defs><clipPath id="bc75d7a4b8"><path d="M 2.046875 0 L 35.148438 0 L 35.148438 36.777344 L 2.046875 36.777344 Z M 2.046875 0 " clip-rule="nonzero"/></clipPath><clipPath id="db5ae8fbe1"><path d="M 2.046875 0 L 35.148438 0 L 35.148438 36.777344 L 2.046875 36.777344 Z M 2.046875 0 " clip-rule="nonzero"/></clipPath><clipPath id="135c7611af"><path d="M 34.394531 0 L 70.53125 0 L 70.53125 36.730469 L 34.394531 36.730469 Z M 34.394531 0 " clip-rule="nonzero"/></clipPath><clipPath id="18dfc76ca7"><path d="M 34.394531 0 L 70.53125 0 L 70.53125 36.730469 L 34.394531 36.730469 Z M 34.394531 0 " clip-rule="nonzero"/></clipPath><clipPath id="b2ac651c3c"><path d="M 72.601562 0 L 104.96875 0 L 104.96875 36.777344 L 72.601562 36.777344 Z M 72.601562 0 " clip-rule="nonzero"/></clipPath><clipPath id="491aa51ad9"><path d="M 72.601562 0 L 104.96875 0 L 104.96875 36.777344 L 72.601562 36.777344 Z M 72.601562 0 " clip-rule="nonzero"/></clipPath><clipPath id="568e2278c7"><path d="M 109.347656 0.136719 L 136.320312 0.136719 L 136.320312 36.585938 L 109.347656 36.585938 Z M 109.347656 0.136719 " clip-rule="nonzero"/></clipPath><clipPath id="42aff02b01"><path d="M 109.347656 0.136719 L 136.320312 0.136719 L 136.320312 36.585938 L 109.347656 36.585938 Z M 109.347656 0.136719 " clip-rule="nonzero"/></clipPath><clipPath id="408ab979a0"><path d="M 139.488281 0 L 173 0 L 173 36.777344 L 139.488281 36.777344 Z M 139.488281 0 " clip-rule="nonzero"/></clipPath><clipPath id="c04fff7aeb"><path d="M 139.488281 0 L 173.324219 0 L 173.324219 36.777344 L 139.488281 36.777344 Z M 139.488281 0 " clip-rule="nonzero"/></clipPath><clipPath id="00548b8ab6"><path d="M 173.535156 0.242188 L 200.5 0.242188 L 200.5 36.492188 L 173.535156 36.492188 Z M 173.535156 0.242188 " clip-rule="nonzero"/></clipPath><clipPath id="aac0c31348"><path d="M 173.535156 0.242188 L 200.5 0.242188 L 200.5 36.492188 L 173.535156 36.492188 Z M 173.535156 0.242188 " clip-rule="nonzero"/></clipPath><clipPath id="330e50e43f"><path d="M 197.949219 0 L 235.464844 0 L 235.464844 36.777344 L 197.949219 36.777344 Z M 197.949219 0 " clip-rule="nonzero"/></clipPath><clipPath id="bdb98a7b3e"><path d="M 197.949219 0 L 235.464844 0 L 235.464844 36.777344 L 197.949219 36.777344 Z M 197.949219 0 " clip-rule="nonzero"/></clipPath></defs><g clip-path="url(#bc75d7a4b8)"><path fill="#563066" d="M 23.636719 18.910156 L 23.679688 18.910156 L 23.6875 18.984375 L 23.734375 18.984375 L 23.742188 19.058594 L 23.785156 19.058594 L 23.792969 19.132812 L 23.839844 19.132812 L 23.847656 19.203125 L 23.890625 19.203125 L 23.898438 19.28125 L 23.945312 19.28125 L 23.953125 19.351562 L 23.996094 19.351562 L 24.003906 19.429688 L 24.050781 19.429688 L 24.050781 19.441406 C 22.277344 20.714844 19.929688 21.664062 18.300781 21.664062 C 17.152344 21.664062 16.128906 21.371094 15.273438 20.835938 C 15.074219 20.128906 14.964844 19.347656 14.964844 18.507812 C 14.964844 14.695312 17.523438 12.121094 21.351562 12.023438 L 21.792969 16.332031 L 21.839844 16.332031 L 21.847656 16.402344 L 21.890625 16.402344 L 21.898438 16.476562 L 21.945312 16.476562 L 21.953125 16.550781 L 21.996094 16.550781 L 22.003906 16.625 L 22.050781 16.625 L 22.058594 16.695312 L 22.101562 16.695312 L 22.109375 16.773438 L 22.15625 16.773438 L 22.164062 16.84375 L 22.207031 16.84375 L 22.214844 16.921875 L 22.261719 16.921875 L 22.269531 16.992188 L 22.3125 16.992188 L 22.320312 17.066406 L 22.367188 17.066406 L 22.375 17.140625 L 22.417969 17.140625 L 22.425781 17.214844 L 22.472656 17.214844 L 22.480469 17.289062 L 22.523438 17.289062 L 22.53125 17.363281 L 22.578125 17.363281 L 22.585938 17.433594 L 22.628906 17.433594 L 22.636719 17.511719 L 22.683594 17.511719 L 22.691406 17.582031 L 22.734375 17.582031 L 22.742188 17.65625 L 22.789062 17.65625 L 22.796875 17.730469 L 22.835938 17.730469 L 22.847656 17.804688 L 22.894531 17.804688 L 22.902344 17.878906 L 22.941406 17.878906 L 22.953125 17.953125 L 22.996094 17.953125 L 23.007812 18.023438 L 23.046875 18.023438 L 23.058594 18.101562 L 23.101562 18.101562 L 23.113281 18.171875 L 23.152344 18.171875 L 23.164062 18.25 L 23.207031 18.25 L 23.21875 18.320312 L 23.257812 18.320312 L 23.269531 18.394531 L 23.3125 18.394531 L 23.324219 18.46875 L 23.363281 18.46875 L 23.375 18.542969 L 23.417969 18.542969 L 23.429688 18.613281 L 23.46875 18.613281 L 23.476562 18.691406 L 23.523438 18.691406 L 23.535156 18.761719 L 23.574219 18.761719 L 23.582031 18.839844 L 23.628906 18.839844 Z M 35.3125 29.523438 L 35.449219 29.34375 L 35.386719 29.28125 L 35.398438 29.273438 L 35.332031 29.207031 L 35.34375 29.195312 L 35.28125 29.132812 L 35.292969 29.125 L 35.226562 29.058594 L 35.238281 29.050781 L 35.179688 28.988281 L 35.1875 28.976562 L 35.121094 28.910156 L 35.132812 28.902344 L 35.074219 28.839844 L 35.082031 28.832031 L 35.019531 28.761719 L 35.027344 28.753906 L 34.96875 28.691406 L 34.976562 28.683594 L 34.914062 28.617188 L 34.921875 28.605469 L 34.863281 28.542969 L 34.871094 28.535156 L 34.808594 28.46875 L 34.816406 28.460938 L 34.757812 28.394531 L 34.765625 28.386719 L 34.703125 28.320312 L 34.710938 28.3125 L 34.652344 28.25 L 34.660156 28.242188 L 34.597656 28.171875 L 34.605469 28.164062 L 34.546875 28.101562 L 34.554688 28.09375 L 34.492188 28.027344 L 34.5 28.015625 L 34.441406 27.953125 L 34.449219 27.945312 L 34.386719 27.878906 L 34.394531 27.871094 L 34.335938 27.804688 L 34.34375 27.796875 L 34.28125 27.730469 L 34.289062 27.722656 L 34.230469 27.660156 L 34.238281 27.652344 L 34.179688 27.582031 L 34.183594 27.574219 L 34.125 27.511719 L 34.132812 27.503906 L 34.070312 27.433594 L 34.078125 27.425781 L 34.019531 27.363281 L 34.027344 27.355469 L 33.964844 27.289062 L 33.972656 27.28125 L 33.914062 27.214844 L 33.921875 27.207031 L 33.859375 27.140625 L 33.867188 27.132812 L 33.808594 27.070312 L 33.816406 27.058594 L 33.753906 26.992188 L 33.761719 26.984375 L 33.703125 26.921875 L 33.710938 26.914062 L 33.648438 26.84375 L 33.65625 26.835938 L 33.597656 26.773438 L 33.605469 26.765625 L 33.542969 26.699219 L 33.550781 26.691406 L 33.492188 26.625 L 33.5 26.617188 L 33.4375 26.550781 L 33.445312 26.542969 L 33.386719 26.480469 L 33.394531 26.46875 L 33.332031 26.402344 L 33.339844 26.394531 L 33.28125 26.332031 L 33.289062 26.324219 L 33.226562 26.253906 L 33.234375 26.246094 L 33.175781 26.183594 L 33.183594 26.175781 L 33.121094 26.109375 L 33.128906 26.097656 L 33.070312 26.035156 L 33.078125 26.027344 L 33.015625 25.960938 L 33.023438 25.953125 L 32.964844 25.890625 L 32.972656 25.878906 L 27.339844 19.792969 L 31.140625 19.792969 L 34.875 7.648438 L 34.8125 7.601562 L 34.820312 7.578125 L 34.761719 7.527344 L 34.769531 7.5 L 34.710938 7.453125 L 34.714844 7.429688 L 34.65625 7.378906 L 34.664062 7.355469 L 34.601562 7.308594 L 34.609375 7.28125 L 34.550781 7.230469 L 34.558594 7.207031 L 34.5 7.160156 L 34.503906 7.132812 L 34.445312 7.085938 L 34.453125 7.058594 L 34.390625 7.011719 L 34.398438 6.988281 L 34.339844 6.9375 L 34.347656 6.910156 L 34.289062 6.863281 L 34.292969 6.839844 L 34.234375 6.789062 L 34.242188 6.765625 L 34.179688 6.71875 L 34.1875 6.691406 L 34.128906 6.640625 L 34.136719 6.617188 L 34.074219 6.570312 L 34.082031 6.542969 L 34.023438 6.492188 L 34.03125 6.46875 L 33.972656 6.421875 L 33.976562 6.398438 L 33.917969 6.347656 L 33.925781 6.320312 L 33.863281 6.273438 L 33.871094 6.25 L 33.8125 6.199219 L 33.820312 6.171875 L 33.761719 6.128906 L 33.765625 6.101562 L 33.707031 6.050781 L 33.714844 6.027344 L 33.652344 5.980469 L 33.660156 5.953125 L 33.601562 5.902344 L 33.609375 5.878906 L 33.550781 5.832031 L 33.554688 5.808594 L 33.496094 5.757812 L 33.503906 5.730469 L 33.441406 5.683594 L 33.449219 5.660156 L 33.390625 5.609375 L 33.398438 5.582031 L 33.339844 5.539062 L 33.34375 5.511719 L 33.285156 5.460938 L 33.292969 5.4375 L 33.234375 5.390625 L 33.238281 5.363281 L 33.179688 5.3125 L 33.1875 5.289062 L 33.125 5.242188 L 33.132812 5.21875 L 33.074219 5.167969 L 33.082031 5.140625 L 33.023438 5.09375 L 33.027344 5.070312 L 32.96875 5.019531 L 32.976562 4.992188 L 32.914062 4.949219 L 32.921875 4.921875 L 32.863281 4.871094 L 32.871094 4.847656 L 32.8125 4.800781 L 32.816406 4.773438 L 32.757812 4.722656 L 32.765625 4.699219 L 32.703125 4.652344 L 32.710938 4.628906 L 32.652344 4.578125 L 32.660156 4.550781 L 32.601562 4.503906 L 32.605469 4.480469 L 32.546875 4.429688 L 32.554688 4.402344 L 32.492188 4.355469 L 32.5 4.332031 L 32.441406 4.28125 L 32.449219 4.257812 L 32.386719 4.210938 L 32.394531 4.183594 L 32.257812 4.070312 C 29.230469 1.640625 23.964844 0.00390625 19.15625 0.00390625 C 8.921875 0.00390625 2.046875 6.769531 2.046875 16.832031 C 2.046875 21.269531 3.230469 24.964844 5.398438 27.726562 C 5.417969 27.746094 5.433594 27.777344 5.453125 27.800781 C 5.46875 27.824219 5.488281 27.847656 5.503906 27.875 C 5.519531 27.898438 5.539062 27.925781 5.558594 27.945312 C 5.574219 27.972656 5.59375 27.996094 5.609375 28.019531 C 5.628906 28.046875 5.644531 28.070312 5.664062 28.09375 C 5.679688 28.117188 5.699219 28.144531 5.714844 28.167969 C 5.734375 28.195312 5.75 28.21875 5.769531 28.242188 C 5.785156 28.265625 5.804688 28.292969 5.820312 28.316406 C 5.839844 28.339844 5.855469 28.367188 5.875 28.386719 C 5.890625 28.414062 5.910156 28.4375 5.925781 28.464844 C 5.945312 28.488281 5.960938 28.515625 5.980469 28.535156 C 5.996094 28.5625 6.015625 28.585938 6.03125 28.613281 C 6.050781 28.636719 6.0625 28.660156 6.085938 28.6875 C 6.101562 28.707031 6.121094 28.734375 6.136719 28.757812 C 6.15625 28.785156 6.167969 28.808594 6.191406 28.832031 C 6.207031 28.855469 6.222656 28.882812 6.242188 28.90625 C 6.261719 28.933594 6.273438 28.957031 6.296875 28.976562 C 6.3125 29.003906 6.328125 29.027344 6.347656 29.054688 C 6.367188 29.078125 6.378906 29.105469 6.402344 29.128906 C 6.417969 29.152344 6.433594 29.175781 6.453125 29.203125 C 6.472656 29.226562 6.484375 29.25 6.507812 29.273438 C 6.523438 29.296875 6.539062 29.324219 6.558594 29.347656 C 6.578125 29.375 6.589844 29.398438 6.613281 29.421875 C 6.628906 29.445312 6.644531 29.472656 6.664062 29.496094 C 6.683594 29.523438 6.695312 29.546875 6.71875 29.566406 C 6.734375 29.59375 6.75 29.617188 6.769531 29.644531 C 6.789062 29.667969 6.800781 29.695312 6.824219 29.714844 C 6.839844 29.742188 6.855469 29.765625 6.875 29.792969 C 6.894531 29.816406 6.90625 29.84375 6.929688 29.867188 C 6.945312 29.886719 6.960938 29.914062 6.980469 29.9375 C 7 29.964844 7.011719 29.988281 7.035156 30.015625 C 7.050781 30.035156 7.066406 30.0625 7.085938 30.085938 C 7.105469 30.109375 7.117188 30.136719 7.140625 30.164062 C 7.15625 30.183594 7.171875 30.207031 7.191406 30.234375 C 7.207031 30.257812 7.222656 30.285156 7.246094 30.304688 C 7.261719 30.332031 7.277344 30.355469 7.296875 30.382812 C 7.316406 30.40625 7.328125 30.433594 7.351562 30.453125 C 7.367188 30.476562 7.382812 30.503906 7.402344 30.527344 C 7.421875 30.554688 7.433594 30.578125 7.457031 30.601562 C 7.472656 30.625 7.488281 30.652344 7.503906 30.675781 C 7.527344 30.703125 7.539062 30.726562 7.5625 30.75 C 7.578125 30.773438 7.59375 30.796875 7.609375 30.824219 C 7.632812 30.847656 7.644531 30.875 7.664062 30.894531 C 7.683594 30.921875 7.699219 30.945312 7.714844 30.972656 C 7.738281 30.996094 7.75 31.023438 7.769531 31.042969 C 7.789062 31.070312 7.804688 31.09375 7.820312 31.117188 C 10.597656 34.707031 15.019531 36.722656 20.644531 36.722656 C 26.066406 36.722656 31.957031 33.828125 35.3125 29.523438 " fill-opacity="1" fill-rule="nonzero"/></g><path fill="#f93d6e" d="M 18.960938 32.257812 C 9.992188 32.257812 4.417969 26.566406 4.417969 17.414062 C 4.417969 8.289062 10.65625 2.160156 19.941406 2.160156 C 24.058594 2.160156 28.511719 3.425781 31.351562 5.359375 L 28.289062 15.328125 L 24.007812 15.328125 L 23.234375 7.835938 L 22.199219 7.707031 C 21.339844 7.597656 20.582031 7.546875 19.878906 7.546875 C 15.0625 7.546875 11.699219 10.867188 11.699219 15.621094 C 11.699219 20.453125 14.738281 23.824219 19.089844 23.824219 C 21.277344 23.824219 24.296875 22.546875 26.398438 20.828125 L 31.664062 26.511719 C 28.515625 29.980469 23.554688 32.257812 18.960938 32.257812 " fill-opacity="1" fill-rule="nonzero"/><g clip-path="url(#db5ae8fbe1)"><path stroke-linecap="butt" transform="matrix(0.10789, 0, 0, -0.10789, 2.04808, 36.722785)" fill="none" stroke-linejoin="miter" d="M 149.447229 38.524382 C 61.213189 38.524382 6.397295 94.390251 6.397295 184.362179 C 6.397295 273.827222 67.549241 333.929194 158.571143 333.929194 C 200.678729 333.929194 246.55174 320.062294 273.923481 299.280045 L 241.953577 195.405011 L 188.803158 195.405011 L 181.525751 265.753283 L 178.412034 266.151549 C 170.808773 267.092905 164.146868 267.563583 157.919434 267.563583 C 117.549736 267.563583 90.359025 240.771138 90.359025 200.980736 C 90.359025 161.04551 115.16014 133.166885 150.642027 133.166885 C 171.026009 133.166885 201.258025 147.069992 218.962762 164.159227 L 278.19579 100.183212 C 247.963774 63.180673 196.696068 38.524382 149.447229 38.524382 Z M 149.447229 38.524382 " stroke="#fdfefe" stroke-width="10.32" stroke-opacity="1" stroke-miterlimit="4"/></g><g clip-path="url(#135c7611af)"><path fill="#563066" d="M 52.296875 21.988281 C 50.554688 21.988281 49.113281 21.449219 47.984375 20.585938 C 47.664062 19.6875 47.5 18.734375 47.5 17.796875 C 47.5 15.558594 49.21875 12.402344 53.039062 12.402344 C 54.589844 12.402344 55.828125 12.804688 56.792969 13.464844 C 57.128906 14.472656 57.285156 15.546875 57.285156 16.570312 C 57.285156 19.1875 55.277344 21.988281 52.296875 21.988281 Z M 37.621094 27.449219 C 37.636719 27.46875 37.652344 27.492188 37.671875 27.519531 C 37.6875 27.542969 37.703125 27.570312 37.726562 27.59375 C 37.742188 27.617188 37.757812 27.640625 37.777344 27.664062 C 37.792969 27.691406 37.8125 27.714844 37.832031 27.742188 C 37.847656 27.761719 37.863281 27.789062 37.878906 27.8125 C 37.898438 27.839844 37.914062 27.863281 37.933594 27.890625 C 37.953125 27.910156 37.96875 27.933594 37.984375 27.960938 C 38.003906 27.984375 38.019531 28.011719 38.039062 28.035156 C 38.058594 28.058594 38.074219 28.082031 38.089844 28.105469 C 38.109375 28.132812 38.125 28.15625 38.144531 28.183594 C 38.164062 28.203125 38.179688 28.230469 38.195312 28.253906 C 38.210938 28.28125 38.230469 28.304688 38.25 28.332031 C 38.265625 28.351562 38.285156 28.375 38.300781 28.402344 C 38.316406 28.425781 38.339844 28.453125 38.355469 28.476562 C 38.371094 28.5 38.390625 28.523438 38.40625 28.546875 C 38.421875 28.574219 38.441406 28.597656 38.460938 28.621094 C 38.476562 28.644531 38.496094 28.671875 38.511719 28.695312 C 38.53125 28.722656 38.542969 28.746094 38.566406 28.773438 C 38.582031 28.792969 38.597656 28.816406 38.617188 28.84375 C 38.632812 28.867188 38.648438 28.894531 38.671875 28.917969 C 38.6875 28.941406 38.703125 28.964844 38.722656 28.988281 C 38.738281 29.015625 38.753906 29.039062 38.777344 29.066406 C 38.792969 29.085938 38.808594 29.113281 38.828125 29.136719 C 38.84375 29.164062 38.859375 29.1875 38.882812 29.214844 C 38.898438 29.234375 38.914062 29.257812 38.933594 29.285156 C 38.949219 29.308594 38.964844 29.335938 38.984375 29.359375 C 39.003906 29.382812 39.019531 29.40625 39.035156 29.429688 C 39.054688 29.457031 39.070312 29.480469 39.089844 29.507812 C 39.109375 29.527344 39.125 29.554688 39.140625 29.578125 C 39.160156 29.605469 39.175781 29.628906 39.195312 29.65625 C 39.214844 29.675781 39.230469 29.699219 39.246094 29.726562 C 39.265625 29.75 39.28125 29.777344 39.300781 29.800781 C 39.320312 29.824219 39.335938 29.847656 39.351562 29.871094 C 39.367188 29.898438 39.386719 29.921875 39.40625 29.949219 C 39.421875 29.96875 39.441406 29.996094 39.457031 30.019531 C 39.472656 30.046875 39.492188 30.070312 39.511719 30.097656 C 39.527344 30.117188 39.546875 30.140625 39.5625 30.167969 C 39.578125 30.191406 39.597656 30.21875 39.617188 30.242188 C 39.632812 30.265625 39.652344 30.289062 39.667969 30.3125 C 39.683594 30.339844 39.699219 30.363281 39.722656 30.390625 C 39.738281 30.410156 39.753906 30.4375 39.773438 30.460938 C 39.789062 30.488281 39.804688 30.511719 39.828125 30.539062 C 39.84375 30.558594 39.859375 30.582031 39.878906 30.609375 C 39.894531 30.632812 39.910156 30.660156 39.933594 30.683594 C 42.507812 34.242188 46.753906 36.730469 52.851562 36.730469 C 64.332031 36.730469 70.527344 27.707031 70.527344 19.21875 C 70.527344 15.769531 69.585938 12.308594 67.601562 9.507812 C 67.585938 9.484375 67.570312 9.457031 67.546875 9.433594 C 67.53125 9.414062 67.515625 9.386719 67.496094 9.363281 C 67.480469 9.335938 67.464844 9.3125 67.445312 9.289062 C 67.425781 9.265625 67.410156 9.238281 67.390625 9.214844 C 67.375 9.191406 67.359375 9.164062 67.339844 9.144531 C 67.320312 9.117188 67.304688 9.09375 67.285156 9.066406 C 67.269531 9.042969 67.253906 9.015625 67.238281 8.996094 C 67.214844 8.972656 67.199219 8.945312 67.183594 8.921875 C 67.164062 8.894531 67.148438 8.871094 67.128906 8.84375 C 67.109375 8.824219 67.09375 8.796875 67.078125 8.773438 C 67.058594 8.75 67.042969 8.722656 67.027344 8.703125 C 67.003906 8.675781 66.988281 8.652344 66.972656 8.625 C 66.953125 8.601562 66.9375 8.574219 66.917969 8.554688 C 66.898438 8.53125 66.882812 8.503906 66.867188 8.480469 C 66.851562 8.453125 66.832031 8.429688 66.816406 8.40625 C 66.796875 8.382812 66.777344 8.355469 66.761719 8.332031 C 66.746094 8.308594 66.726562 8.28125 66.707031 8.257812 C 66.691406 8.234375 66.671875 8.210938 66.65625 8.183594 C 66.640625 8.160156 66.621094 8.132812 66.601562 8.109375 C 66.585938 8.089844 66.566406 8.0625 66.550781 8.039062 C 66.535156 8.011719 66.519531 7.988281 66.496094 7.960938 C 66.480469 7.941406 66.464844 7.914062 66.445312 7.890625 C 66.429688 7.867188 66.414062 7.839844 66.390625 7.816406 C 66.375 7.792969 66.359375 7.769531 66.339844 7.742188 C 66.324219 7.71875 66.308594 7.691406 66.289062 7.671875 C 66.269531 7.648438 66.253906 7.621094 66.234375 7.597656 C 66.21875 7.570312 66.203125 7.546875 66.1875 7.523438 C 66.164062 7.5 66.148438 7.472656 66.132812 7.449219 C 66.113281 7.425781 66.097656 7.398438 66.082031 7.378906 C 66.058594 7.351562 66.042969 7.328125 66.027344 7.300781 C 66.007812 7.277344 65.992188 7.25 65.976562 7.230469 C 65.953125 7.207031 65.9375 7.179688 65.921875 7.15625 C 65.902344 7.128906 65.886719 7.105469 65.867188 7.078125 C 65.847656 7.058594 65.832031 7.03125 65.816406 7.007812 C 65.796875 6.984375 65.78125 6.957031 65.765625 6.9375 C 65.746094 6.910156 65.726562 6.886719 65.710938 6.859375 C 65.695312 6.835938 65.675781 6.808594 65.660156 6.789062 C 65.640625 6.765625 65.621094 6.738281 65.605469 6.714844 C 65.589844 6.6875 65.570312 6.664062 65.554688 6.640625 C 65.535156 6.617188 65.515625 6.589844 65.5 6.566406 C 65.484375 6.542969 65.464844 6.515625 65.445312 6.492188 C 65.429688 6.46875 65.410156 6.445312 65.394531 6.417969 C 65.378906 6.394531 65.363281 6.367188 65.34375 6.347656 C 65.324219 6.324219 65.308594 6.296875 65.289062 6.273438 C 65.273438 6.246094 65.257812 6.222656 65.234375 6.199219 C 65.21875 6.175781 65.203125 6.148438 65.183594 6.125 C 62.667969 2.519531 58.4375 0 52.296875 0 C 46.960938 0 42.4375 1.746094 39.214844 5.054688 C 36.03125 8.320312 34.277344 12.949219 34.402344 17.75 C 34.480469 21.136719 35.492188 24.542969 37.515625 27.300781 C 37.53125 27.320312 37.546875 27.347656 37.566406 27.371094 C 37.582031 27.398438 37.597656 27.421875 37.621094 27.449219 " fill-opacity="1" fill-rule="nonzero"/></g><path fill="#f93d6e" d="M 51.359375 7.945312 C 46.449219 7.945312 44.242188 12.023438 44.242188 14.914062 C 44.242188 19.386719 47.339844 24.140625 53.082031 24.140625 C 57.007812 24.140625 59.648438 20.523438 59.648438 17.148438 C 59.648438 12.570312 57.085938 7.945312 51.359375 7.945312 Z M 51.167969 32.273438 C 41.445312 32.273438 36.925781 25.25 36.761719 18.285156 C 36.648438 13.90625 38.242188 9.695312 41.128906 6.730469 C 44.046875 3.734375 48.179688 2.152344 53.082031 2.152344 C 63.554688 2.152344 67.269531 9.796875 67.269531 16.339844 C 67.269531 24.261719 61.738281 32.273438 51.167969 32.273438 " fill-opacity="1" fill-rule="nonzero"/><g clip-path="url(#18dfc76ca7)"><path stroke-linecap="butt" transform="matrix(0.10762, 0, 0, -0.10762, 34.395648, 36.730679)" fill="none" stroke-linejoin="miter" d="M 150.330638 264.568742 C 110.36795 264.568742 92.364778 231.538728 92.364778 208.05475 C 92.364778 170.523943 118.316932 130.597552 166.337491 130.597552 C 197.87934 130.597552 219.076624 159.925301 219.076624 187.329324 C 219.076624 225.803846 197.806747 264.568742 150.330638 264.568742 Z M 148.515802 38.512775 C 52.61987 38.512775 8.083796 107.875805 6.450443 176.549198 C 5.361542 219.415623 20.969131 260.757587 49.389462 289.867555 C 78.100167 319.340491 118.498415 334.911784 166.337491 334.911784 C 263.068248 334.911784 306.40653 264.532445 306.40653 194.806448 C 306.40653 119.091492 251.054034 38.512775 148.515802 38.512775 Z M 148.515802 38.512775 " stroke="#fdfefe" stroke-width="10.32" stroke-opacity="1" stroke-miterlimit="4"/></g><g clip-path="url(#b2ac651c3c)"><path fill="#563066" d="M 72.910156 33.257812 L 72.960938 33.253906 L 72.960938 33.335938 L 73.015625 33.332031 L 73.011719 33.410156 L 73.070312 33.40625 L 73.066406 33.484375 L 73.121094 33.480469 L 73.121094 33.558594 L 73.175781 33.554688 L 73.171875 33.636719 L 73.230469 33.632812 L 73.226562 33.710938 L 73.285156 33.707031 L 73.28125 33.785156 L 73.339844 33.78125 L 73.335938 33.863281 L 73.390625 33.855469 L 73.390625 33.9375 L 73.445312 33.933594 L 73.4375 34.011719 L 73.496094 34.007812 L 73.492188 34.085938 L 73.550781 34.082031 L 73.546875 34.164062 L 73.601562 34.15625 L 73.601562 34.238281 L 73.65625 34.234375 L 73.652344 34.3125 L 73.710938 34.308594 L 73.707031 34.386719 L 73.761719 34.382812 L 73.761719 34.464844 L 73.816406 34.460938 L 73.8125 34.539062 L 73.871094 34.535156 L 73.867188 34.613281 L 73.925781 34.609375 L 73.917969 34.6875 L 73.976562 34.683594 L 73.972656 34.765625 L 74.027344 34.761719 L 74.023438 34.839844 L 74.082031 34.835938 L 74.078125 34.914062 L 74.136719 34.910156 L 74.132812 34.988281 L 74.191406 34.984375 L 74.1875 35.066406 L 74.242188 35.0625 L 74.238281 35.140625 L 74.296875 35.136719 L 74.292969 35.214844 L 74.351562 35.210938 L 74.347656 35.289062 L 74.40625 35.285156 L 74.402344 35.367188 L 74.453125 35.363281 L 74.449219 35.441406 L 74.507812 35.4375 L 74.503906 35.515625 L 74.5625 35.511719 L 74.558594 35.589844 L 74.613281 35.585938 L 74.613281 35.667969 L 74.667969 35.664062 L 74.667969 35.742188 L 74.722656 35.738281 L 74.71875 35.816406 L 74.777344 35.8125 L 74.773438 35.894531 L 74.828125 35.886719 L 74.828125 35.96875 L 74.882812 35.964844 L 74.882812 36.042969 L 74.933594 36.039062 L 74.929688 36.117188 L 74.988281 36.113281 L 74.984375 36.195312 L 75.039062 36.1875 L 75.039062 36.269531 L 75.09375 36.265625 L 75.09375 36.34375 L 75.148438 36.339844 L 75.144531 36.417969 L 75.203125 36.414062 L 75.199219 36.496094 L 75.253906 36.492188 L 75.253906 36.570312 L 75.308594 36.566406 L 75.308594 36.644531 L 75.363281 36.640625 L 75.359375 36.71875 L 88.542969 35.503906 L 86.339844 21.476562 L 98.300781 35.425781 L 104.683594 35.425781 L 103.84375 3.535156 L 103.792969 3.542969 L 103.789062 3.460938 L 103.738281 3.46875 L 103.738281 3.386719 L 103.691406 3.394531 L 103.683594 3.308594 L 103.636719 3.320312 L 103.632812 3.234375 L 103.582031 3.242188 L 103.582031 3.160156 L 103.527344 3.167969 L 103.527344 3.085938 L 103.472656 3.09375 L 103.472656 3.007812 L 103.421875 3.015625 L 103.417969 2.933594 L 103.367188 2.941406 L 103.367188 2.859375 L 103.3125 2.867188 L 103.3125 2.785156 L 103.257812 2.792969 L 103.257812 2.707031 L 103.210938 2.714844 L 103.203125 2.632812 L 103.15625 2.640625 L 103.15625 2.558594 L 103.101562 2.566406 L 103.101562 2.484375 L 103.046875 2.492188 L 103.046875 2.40625 L 102.996094 2.414062 L 102.992188 2.332031 L 102.941406 2.339844 L 102.9375 2.257812 L 102.886719 2.265625 L 102.886719 2.183594 L 102.835938 2.191406 L 102.832031 2.105469 L 102.78125 2.113281 L 102.777344 2.03125 L 102.726562 2.039062 L 102.722656 1.957031 L 102.675781 1.964844 L 102.675781 1.878906 L 102.625 1.890625 L 102.621094 1.804688 L 102.570312 1.8125 L 102.566406 1.730469 L 102.515625 1.738281 L 102.511719 1.65625 L 102.460938 1.664062 L 102.460938 1.578125 L 102.40625 1.589844 L 102.40625 1.503906 L 102.355469 1.511719 L 102.351562 1.429688 L 102.300781 1.4375 L 102.300781 1.355469 L 102.246094 1.363281 L 102.246094 1.277344 L 102.195312 1.289062 L 102.195312 1.203125 L 102.144531 1.210938 L 102.140625 1.128906 L 102.089844 1.136719 L 102.089844 1.054688 L 102.035156 1.0625 L 102.035156 0.976562 L 101.980469 0.988281 L 101.980469 0.902344 L 101.929688 0.910156 L 101.925781 0.828125 L 101.875 0.835938 L 101.871094 0.753906 L 101.820312 0.761719 L 101.820312 0.675781 L 101.769531 0.683594 L 101.765625 0.601562 L 101.71875 0.609375 L 101.710938 0.527344 L 101.664062 0.535156 L 101.660156 0.453125 L 101.609375 0.460938 L 101.609375 0.375 L 101.558594 0.382812 L 101.554688 0.300781 L 101.503906 0.308594 L 101.5 0.226562 L 101.449219 0.234375 L 101.445312 0.152344 L 101.394531 0.160156 L 101.394531 0.0742188 L 101.34375 0.0820312 L 101.339844 0 L 92.703125 1.277344 L 91.273438 13.4375 L 81.671875 1.628906 L 74.105469 0.199219 L 72.855469 33.183594 L 72.914062 33.179688 L 72.910156 33.257812 " fill-opacity="1" fill-rule="nonzero"/></g><path fill="#f93d6e" d="M 76.441406 2.710938 L 81.597656 3.6875 L 93.222656 17.980469 L 94.953125 3.277344 L 100.589844 2.441406 L 101.335938 30.875 L 97.339844 30.875 L 82.179688 13.199219 L 84.992188 31.117188 L 75.328125 32.003906 L 76.441406 2.710938 " fill-opacity="1" fill-rule="nonzero"/><g clip-path="url(#491aa51ad9)"><path stroke-linecap="butt" transform="matrix(0.106992, 0, 0, -0.106992, 72.854164, 36.719789)" fill="none" stroke-linejoin="miter" d="M 17.938413 333.488442 L 78.836434 321.951407 L 176.828213 201.433202 L 191.432055 325.456329 L 259.887564 335.605999 L 267.335523 51.707313 L 217.463403 51.707313 L 92.600555 197.307617 L 115.711135 50.319948 L 6.839494 40.279807 Z M 17.938413 333.488442 " stroke="#fdfefe" stroke-width="10.573" stroke-opacity="1" stroke-miterlimit="4"/></g><g clip-path="url(#568e2278c7)"><path fill="#563066" d="M 109.394531 32.109375 L 109.453125 32.109375 L 109.449219 32.179688 L 109.503906 32.183594 L 109.5 32.253906 L 109.558594 32.253906 L 109.554688 32.324219 L 109.609375 32.328125 L 109.609375 32.398438 L 109.660156 32.398438 L 109.65625 32.46875 L 109.710938 32.472656 L 109.710938 32.542969 L 109.765625 32.542969 L 109.761719 32.613281 L 109.816406 32.617188 L 109.8125 32.6875 L 109.871094 32.6875 L 109.863281 32.757812 L 109.917969 32.761719 L 109.914062 32.832031 L 109.972656 32.832031 L 109.96875 32.90625 L 110.023438 32.910156 L 110.023438 32.980469 L 110.078125 32.980469 L 110.074219 33.050781 L 110.125 33.054688 L 110.125 33.125 L 110.179688 33.125 L 110.175781 33.195312 L 110.230469 33.199219 L 110.226562 33.269531 L 110.285156 33.269531 L 110.28125 33.339844 L 110.332031 33.34375 L 110.328125 33.414062 L 110.386719 33.414062 L 110.382812 33.484375 L 110.4375 33.488281 L 110.433594 33.558594 L 110.492188 33.558594 L 110.488281 33.628906 L 110.542969 33.632812 L 110.542969 33.707031 L 110.59375 33.707031 L 110.589844 33.777344 L 110.644531 33.78125 L 110.640625 33.851562 L 110.699219 33.851562 L 110.695312 33.921875 L 110.75 33.925781 L 110.75 33.996094 L 110.800781 33.996094 L 110.796875 34.066406 L 110.851562 34.070312 L 110.851562 34.140625 L 110.90625 34.140625 L 110.902344 34.210938 L 110.957031 34.214844 L 110.953125 34.285156 L 111.011719 34.285156 L 111.003906 34.355469 L 111.058594 34.359375 L 111.058594 34.429688 L 111.113281 34.429688 L 111.109375 34.5 L 111.164062 34.503906 L 111.160156 34.578125 L 111.21875 34.578125 L 111.214844 34.648438 L 111.265625 34.652344 L 111.261719 34.722656 L 111.320312 34.722656 L 111.316406 34.792969 L 111.371094 34.796875 L 111.371094 34.867188 L 111.425781 34.867188 L 111.421875 34.9375 L 111.472656 34.941406 L 111.46875 35.011719 L 111.527344 35.011719 L 111.523438 35.082031 L 111.578125 35.085938 L 111.578125 35.15625 L 111.632812 35.15625 L 111.628906 35.226562 L 111.683594 35.230469 L 111.683594 35.300781 L 111.734375 35.300781 L 111.730469 35.371094 L 111.785156 35.378906 L 111.78125 35.449219 L 136.328125 36.585938 L 135.21875 25.464844 L 135.179688 25.46875 L 135.171875 25.390625 L 135.125 25.398438 L 135.117188 25.320312 L 135.074219 25.324219 L 135.066406 25.246094 L 135.019531 25.253906 L 135.011719 25.175781 L 134.972656 25.179688 L 134.964844 25.101562 L 134.917969 25.109375 L 134.910156 25.03125 L 134.867188 25.035156 L 134.859375 24.957031 L 134.8125 24.964844 L 134.804688 24.886719 L 134.765625 24.890625 L 134.753906 24.8125 L 134.710938 24.820312 L 134.703125 24.742188 L 134.660156 24.746094 L 134.652344 24.664062 L 134.605469 24.675781 L 134.597656 24.59375 L 134.558594 24.597656 L 134.546875 24.519531 L 134.503906 24.527344 L 134.496094 24.449219 L 134.453125 24.453125 L 134.445312 24.375 L 134.398438 24.382812 L 134.390625 24.304688 L 134.347656 24.308594 L 134.339844 24.230469 L 134.296875 24.238281 L 134.285156 24.160156 L 134.246094 24.164062 L 134.238281 24.085938 L 134.191406 24.09375 L 134.183594 24.015625 L 134.140625 24.019531 L 134.132812 23.941406 L 134.085938 23.949219 L 134.078125 23.871094 L 134.039062 23.875 L 134.03125 23.792969 L 133.984375 23.804688 L 133.976562 23.722656 L 133.933594 23.726562 L 133.925781 23.648438 L 133.878906 23.65625 L 133.871094 23.578125 L 133.832031 23.582031 L 133.824219 23.503906 L 133.777344 23.511719 L 133.769531 23.433594 L 133.726562 23.4375 L 133.71875 23.359375 L 133.671875 23.367188 L 133.664062 23.289062 L 133.625 23.292969 L 133.613281 23.214844 L 133.570312 23.222656 L 133.5625 23.144531 L 133.519531 23.148438 L 133.511719 23.070312 L 133.464844 23.078125 L 133.457031 22.996094 L 133.414062 23.003906 L 133.40625 22.921875 L 133.363281 22.929688 L 133.355469 22.851562 L 133.3125 22.855469 L 133.304688 22.777344 L 133.257812 22.785156 L 133.25 22.707031 L 133.207031 22.710938 L 133.199219 22.632812 L 133.15625 22.640625 L 133.144531 22.5625 L 133.105469 22.566406 L 133.097656 22.488281 L 133.050781 22.496094 L 133.042969 22.417969 L 133 22.421875 L 132.992188 22.34375 L 132.945312 22.351562 L 132.9375 22.273438 L 132.898438 22.277344 L 132.890625 22.199219 L 132.84375 22.207031 L 132.835938 22.125 L 132.792969 22.132812 L 132.785156 22.050781 L 126.285156 22.855469 L 129.949219 22.234375 L 129.066406 15.511719 L 129.027344 15.511719 L 129.019531 15.433594 L 128.972656 15.433594 L 128.964844 15.363281 L 128.921875 15.363281 L 128.914062 15.289062 L 128.867188 15.289062 L 128.859375 15.21875 L 128.820312 15.21875 L 128.8125 15.144531 L 128.765625 15.144531 L 128.757812 15.074219 L 128.714844 15.074219 L 128.707031 15 L 128.660156 15 L 128.652344 14.929688 L 128.613281 14.929688 L 128.605469 14.855469 L 128.558594 14.855469 L 128.550781 14.785156 L 128.507812 14.785156 L 128.5 14.710938 L 128.453125 14.710938 L 128.445312 14.640625 L 128.40625 14.640625 L 128.394531 14.5625 L 128.351562 14.5625 L 128.34375 14.492188 L 128.300781 14.492188 L 128.292969 14.417969 L 128.246094 14.417969 L 128.238281 14.347656 L 128.195312 14.347656 L 128.1875 14.273438 L 128.144531 14.273438 L 128.136719 14.203125 L 128.09375 14.203125 L 128.085938 14.128906 L 128.039062 14.128906 L 128.03125 14.058594 L 127.988281 14.058594 L 127.980469 13.984375 L 127.9375 13.984375 L 127.925781 13.914062 L 127.886719 13.914062 L 127.878906 13.839844 L 127.832031 13.839844 L 127.824219 13.769531 L 127.78125 13.769531 L 127.773438 13.691406 L 127.726562 13.691406 L 127.71875 13.621094 L 127.679688 13.621094 L 127.671875 13.546875 L 127.625 13.546875 L 127.617188 13.476562 L 127.574219 13.476562 L 127.566406 13.402344 L 127.519531 13.402344 L 127.511719 13.332031 L 127.472656 13.332031 L 127.472656 13.328125 L 133.691406 13.035156 L 134.820312 3.550781 L 134.761719 3.554688 L 134.773438 3.476562 L 134.710938 3.480469 L 134.71875 3.40625 L 134.65625 3.410156 L 134.667969 3.332031 L 134.605469 3.335938 L 134.613281 3.257812 L 134.550781 3.265625 L 134.5625 3.183594 L 134.503906 3.1875 L 134.511719 3.113281 L 134.449219 3.117188 L 134.460938 3.039062 L 134.398438 3.042969 L 134.40625 2.96875 L 134.34375 2.972656 L 134.351562 2.894531 L 134.296875 2.898438 L 134.304688 2.824219 L 134.242188 2.828125 L 134.253906 2.75 L 134.191406 2.753906 L 134.199219 2.679688 L 134.136719 2.683594 L 134.144531 2.605469 L 134.085938 2.609375 L 134.097656 2.535156 L 134.035156 2.539062 L 134.046875 2.457031 L 133.984375 2.464844 L 133.992188 2.386719 L 133.929688 2.390625 L 133.9375 2.3125 L 133.878906 2.316406 L 133.890625 2.242188 L 133.828125 2.246094 L 133.835938 2.167969 L 133.777344 2.171875 L 133.785156 2.097656 L 133.722656 2.101562 L 133.734375 2.023438 L 133.671875 2.027344 L 133.679688 1.953125 L 133.617188 1.957031 L 133.628906 1.878906 L 133.570312 1.882812 L 133.578125 1.808594 L 133.515625 1.8125 L 133.527344 1.734375 L 133.464844 1.738281 L 133.472656 1.664062 L 133.410156 1.667969 L 133.421875 1.585938 L 133.363281 1.59375 L 133.371094 1.515625 L 133.308594 1.519531 L 133.320312 1.441406 L 133.257812 1.445312 L 133.265625 1.371094 L 133.203125 1.375 L 133.210938 1.296875 L 133.15625 1.300781 L 133.164062 1.226562 L 133.101562 1.230469 L 133.113281 1.152344 L 133.050781 1.15625 L 133.058594 1.082031 L 132.996094 1.085938 L 133.007812 1.007812 L 132.945312 1.011719 L 132.957031 0.9375 L 132.894531 0.941406 L 132.902344 0.863281 L 132.84375 0.867188 L 132.851562 0.792969 L 132.789062 0.796875 L 132.800781 0.714844 L 132.738281 0.722656 L 132.746094 0.644531 L 132.6875 0.648438 L 132.695312 0.570312 L 132.636719 0.574219 L 132.644531 0.5 L 132.582031 0.503906 L 132.59375 0.425781 L 132.53125 0.429688 L 132.539062 0.355469 L 132.476562 0.359375 L 132.488281 0.28125 L 132.429688 0.285156 L 132.4375 0.210938 L 132.375 0.214844 L 132.386719 0.136719 L 110.582031 1.382812 L 109.347656 32.035156 L 109.398438 32.039062 L 109.394531 32.109375 " fill-opacity="1" fill-rule="nonzero"/></g><path fill="#f93d6e" d="M 111.738281 31.121094 L 112.855469 3.425781 L 131.398438 2.363281 L 130.640625 8.703125 L 117.855469 9.308594 L 118.679688 14.171875 L 126.042969 14.210938 L 126.554688 18.109375 L 119.578125 19.292969 L 120.699219 25.777344 L 132.171875 24.359375 L 132.941406 32.105469 L 111.738281 31.121094 " fill-opacity="1" fill-rule="nonzero"/><g clip-path="url(#42aff02b01)"><path stroke-linecap="butt" transform="matrix(0.106201, 0, 0, -0.106201, 109.346441, 36.583858)" fill="none" stroke-linejoin="miter" d="M 6.632163 48.936953 L 17.81382 325.388704 L 209.704292 336.34967 L 200.545632 259.990724 L 82.476164 254.399896 L 87.515266 224.606666 L 157.143148 224.202066 L 163.910993 172.523685 L 98.513014 161.452374 L 106.384312 116.247584 L 214.964084 129.636147 L 223.975617 38.858749 Z M 6.632163 48.936953 " stroke="#fdfefe" stroke-width="10.32" stroke-opacity="1" stroke-miterlimit="4"/></g><g clip-path="url(#408ab979a0)"><path fill="#563066" d="M 161.144531 18.96875 L 161.1875 18.96875 L 161.195312 19.046875 L 161.242188 19.046875 L 161.25 19.117188 L 161.292969 19.117188 L 161.300781 19.191406 L 161.347656 19.191406 L 161.355469 19.265625 L 161.398438 19.265625 L 161.40625 19.339844 L 161.453125 19.339844 L 161.464844 19.414062 L 161.503906 19.414062 L 161.515625 19.488281 L 161.558594 19.488281 L 161.558594 19.5 C 159.78125 20.777344 157.425781 21.734375 155.789062 21.734375 C 154.640625 21.734375 153.613281 21.4375 152.753906 20.902344 C 152.554688 20.191406 152.445312 19.410156 152.445312 18.566406 C 152.445312 14.742188 155.011719 12.160156 158.851562 12.0625 L 159.292969 16.382812 L 159.339844 16.382812 L 159.347656 16.453125 L 159.390625 16.453125 L 159.398438 16.53125 L 159.445312 16.53125 L 159.453125 16.601562 L 159.496094 16.601562 L 159.503906 16.675781 L 159.550781 16.675781 L 159.5625 16.75 L 159.601562 16.75 L 159.613281 16.824219 L 159.65625 16.824219 L 159.667969 16.898438 L 159.707031 16.898438 L 159.71875 16.972656 L 159.761719 16.972656 L 159.773438 17.046875 L 159.8125 17.046875 L 159.824219 17.121094 L 159.871094 17.121094 L 159.878906 17.195312 L 159.921875 17.195312 L 159.929688 17.269531 L 159.976562 17.269531 L 159.984375 17.339844 L 160.027344 17.339844 L 160.035156 17.417969 L 160.082031 17.417969 L 160.089844 17.488281 L 160.132812 17.488281 L 160.140625 17.566406 L 160.1875 17.566406 L 160.195312 17.636719 L 160.238281 17.636719 L 160.246094 17.714844 L 160.292969 17.714844 L 160.300781 17.785156 L 160.34375 17.785156 L 160.351562 17.859375 L 160.398438 17.859375 L 160.40625 17.933594 L 160.449219 17.933594 L 160.457031 18.007812 L 160.503906 18.007812 L 160.511719 18.082031 L 160.554688 18.082031 L 160.5625 18.15625 L 160.609375 18.15625 L 160.617188 18.230469 L 160.660156 18.230469 L 160.667969 18.304688 L 160.714844 18.304688 L 160.722656 18.378906 L 160.765625 18.378906 L 160.773438 18.453125 L 160.820312 18.453125 L 160.828125 18.523438 L 160.871094 18.523438 L 160.878906 18.601562 L 160.925781 18.601562 L 160.933594 18.671875 L 160.976562 18.671875 L 160.984375 18.75 L 161.03125 18.75 L 161.039062 18.820312 L 161.082031 18.820312 L 161.089844 18.898438 L 161.136719 18.898438 Z M 172.855469 29.613281 L 172.992188 29.4375 L 172.933594 29.371094 L 172.941406 29.363281 L 172.878906 29.296875 L 172.886719 29.289062 L 172.828125 29.226562 L 172.835938 29.214844 L 172.773438 29.148438 L 172.78125 29.140625 L 172.722656 29.078125 L 172.730469 29.066406 L 172.664062 29 L 172.675781 28.992188 L 172.613281 28.929688 L 172.625 28.921875 L 172.558594 28.851562 L 172.570312 28.84375 L 172.507812 28.78125 L 172.519531 28.773438 L 172.453125 28.703125 L 172.464844 28.695312 L 172.402344 28.632812 L 172.414062 28.625 L 172.347656 28.558594 L 172.355469 28.546875 L 172.296875 28.484375 L 172.304688 28.476562 L 172.242188 28.410156 L 172.25 28.402344 L 172.191406 28.335938 L 172.199219 28.328125 L 172.136719 28.261719 L 172.144531 28.253906 L 172.085938 28.1875 L 172.09375 28.179688 L 172.03125 28.113281 L 172.039062 28.105469 L 171.980469 28.042969 L 171.988281 28.03125 L 171.925781 27.964844 L 171.933594 27.957031 L 171.875 27.894531 L 171.882812 27.882812 L 171.820312 27.816406 L 171.828125 27.808594 L 171.769531 27.746094 L 171.777344 27.738281 L 171.71875 27.667969 L 171.722656 27.660156 L 171.664062 27.597656 L 171.671875 27.589844 L 171.609375 27.519531 L 171.617188 27.511719 L 171.558594 27.449219 L 171.566406 27.441406 L 171.503906 27.375 L 171.511719 27.363281 L 171.453125 27.300781 L 171.460938 27.292969 L 171.398438 27.226562 L 171.40625 27.214844 L 171.347656 27.152344 L 171.355469 27.144531 L 171.292969 27.078125 L 171.300781 27.070312 L 171.242188 27.003906 L 171.25 26.996094 L 171.1875 26.929688 L 171.195312 26.921875 L 171.136719 26.855469 L 171.144531 26.847656 L 171.082031 26.78125 L 171.089844 26.773438 L 171.03125 26.710938 L 171.039062 26.699219 L 170.976562 26.632812 L 170.984375 26.625 L 170.925781 26.5625 L 170.933594 26.554688 L 170.871094 26.484375 L 170.878906 26.476562 L 170.820312 26.414062 L 170.828125 26.40625 L 170.761719 26.335938 L 170.773438 26.328125 L 170.710938 26.265625 L 170.722656 26.257812 L 170.65625 26.1875 L 170.667969 26.179688 L 170.605469 26.117188 L 170.617188 26.109375 L 170.550781 26.042969 L 170.558594 26.03125 L 170.5 25.96875 L 170.511719 25.960938 L 164.859375 19.855469 L 168.671875 19.855469 L 172.417969 7.671875 L 172.351562 7.625 L 172.363281 7.601562 L 172.300781 7.550781 L 172.3125 7.523438 L 172.25 7.480469 L 172.253906 7.453125 L 172.195312 7.402344 L 172.203125 7.378906 L 172.140625 7.332031 L 172.148438 7.304688 L 172.089844 7.253906 L 172.097656 7.230469 L 172.039062 7.183594 L 172.042969 7.15625 L 171.984375 7.105469 L 171.992188 7.082031 L 171.929688 7.035156 L 171.9375 7.007812 L 171.878906 6.957031 L 171.886719 6.933594 L 171.828125 6.886719 L 171.832031 6.863281 L 171.773438 6.8125 L 171.78125 6.785156 L 171.71875 6.738281 L 171.726562 6.714844 L 171.667969 6.664062 L 171.675781 6.636719 L 171.613281 6.589844 L 171.621094 6.566406 L 171.5625 6.515625 L 171.570312 6.488281 L 171.511719 6.441406 L 171.515625 6.417969 L 171.457031 6.367188 L 171.464844 6.339844 L 171.402344 6.296875 L 171.410156 6.269531 L 171.351562 6.21875 L 171.359375 6.195312 L 171.300781 6.148438 L 171.304688 6.121094 L 171.246094 6.070312 L 171.253906 6.046875 L 171.191406 6 L 171.199219 5.972656 L 171.140625 5.921875 L 171.148438 5.898438 L 171.089844 5.851562 L 171.09375 5.824219 L 171.035156 5.773438 L 171.042969 5.75 L 170.980469 5.703125 L 170.988281 5.679688 L 170.929688 5.628906 L 170.9375 5.601562 L 170.878906 5.554688 L 170.882812 5.53125 L 170.824219 5.480469 L 170.832031 5.453125 L 170.773438 5.40625 L 170.777344 5.382812 L 170.71875 5.332031 L 170.726562 5.304688 L 170.660156 5.257812 L 170.671875 5.234375 L 170.609375 5.183594 L 170.621094 5.15625 L 170.558594 5.109375 L 170.566406 5.085938 L 170.503906 5.035156 L 170.515625 5.011719 L 170.449219 4.964844 L 170.460938 4.9375 L 170.398438 4.886719 L 170.410156 4.863281 L 170.347656 4.816406 L 170.351562 4.789062 L 170.292969 4.738281 L 170.300781 4.714844 L 170.238281 4.667969 L 170.246094 4.640625 L 170.1875 4.589844 L 170.195312 4.566406 L 170.136719 4.519531 L 170.140625 4.492188 L 170.082031 4.441406 L 170.089844 4.417969 L 170.027344 4.371094 L 170.035156 4.347656 L 169.976562 4.296875 L 169.984375 4.269531 L 169.921875 4.222656 L 169.929688 4.199219 L 169.792969 4.085938 C 166.753906 1.644531 161.472656 0.00390625 156.648438 0.00390625 C 146.382812 0.00390625 139.488281 6.789062 139.488281 16.886719 C 139.488281 21.335938 140.675781 25.042969 142.847656 27.8125 C 142.871094 27.832031 142.882812 27.863281 142.90625 27.890625 C 142.921875 27.910156 142.9375 27.933594 142.957031 27.960938 C 142.972656 27.984375 142.988281 28.011719 143.011719 28.03125 C 143.027344 28.058594 143.042969 28.082031 143.0625 28.109375 C 143.082031 28.132812 143.09375 28.160156 143.117188 28.179688 C 143.132812 28.207031 143.148438 28.230469 143.167969 28.257812 C 143.1875 28.28125 143.199219 28.308594 143.222656 28.328125 C 143.238281 28.355469 143.253906 28.378906 143.273438 28.40625 C 143.292969 28.429688 143.304688 28.457031 143.328125 28.476562 C 143.34375 28.5 143.359375 28.527344 143.378906 28.550781 C 143.398438 28.578125 143.410156 28.601562 143.433594 28.625 C 143.449219 28.648438 143.464844 28.675781 143.484375 28.699219 C 143.503906 28.726562 143.515625 28.75 143.539062 28.777344 C 143.554688 28.796875 143.574219 28.824219 143.589844 28.847656 C 143.609375 28.875 143.625 28.898438 143.644531 28.921875 C 143.660156 28.945312 143.679688 28.972656 143.695312 28.996094 C 143.714844 29.023438 143.730469 29.046875 143.75 29.066406 C 143.765625 29.09375 143.785156 29.117188 143.800781 29.144531 C 143.820312 29.167969 143.835938 29.195312 143.855469 29.21875 C 143.871094 29.242188 143.890625 29.265625 143.90625 29.292969 C 143.925781 29.316406 143.941406 29.34375 143.960938 29.363281 C 143.976562 29.390625 143.996094 29.414062 144.011719 29.441406 C 144.03125 29.464844 144.046875 29.492188 144.066406 29.511719 C 144.082031 29.539062 144.101562 29.5625 144.117188 29.589844 C 144.140625 29.613281 144.152344 29.640625 144.171875 29.660156 C 144.191406 29.6875 144.207031 29.710938 144.222656 29.734375 C 144.246094 29.761719 144.257812 29.785156 144.277344 29.808594 C 144.296875 29.832031 144.3125 29.859375 144.328125 29.882812 C 144.351562 29.910156 144.363281 29.933594 144.382812 29.960938 C 144.402344 29.980469 144.417969 30.007812 144.433594 30.03125 C 144.457031 30.058594 144.46875 30.082031 144.488281 30.109375 C 144.507812 30.128906 144.523438 30.15625 144.539062 30.179688 C 144.5625 30.203125 144.574219 30.230469 144.59375 30.257812 C 144.613281 30.277344 144.628906 30.304688 144.644531 30.328125 C 144.664062 30.351562 144.679688 30.378906 144.699219 30.398438 C 144.71875 30.425781 144.734375 30.449219 144.75 30.476562 C 144.773438 30.5 144.785156 30.527344 144.808594 30.546875 C 144.824219 30.574219 144.839844 30.597656 144.859375 30.625 C 144.878906 30.648438 144.890625 30.675781 144.914062 30.695312 C 144.929688 30.722656 144.945312 30.746094 144.964844 30.773438 C 144.984375 30.796875 144.996094 30.824219 145.019531 30.84375 C 145.035156 30.871094 145.050781 30.894531 145.070312 30.921875 C 145.089844 30.945312 145.101562 30.96875 145.125 30.992188 C 145.140625 31.015625 145.15625 31.042969 145.175781 31.066406 C 145.195312 31.09375 145.207031 31.117188 145.230469 31.140625 C 145.246094 31.164062 145.261719 31.191406 145.28125 31.214844 C 148.066406 34.8125 152.5 36.839844 158.144531 36.839844 C 163.582031 36.839844 169.492188 33.933594 172.855469 29.613281 " fill-opacity="1" fill-rule="nonzero"/></g><path fill="#f93d6e" d="M 156.453125 32.355469 C 147.457031 32.355469 141.863281 26.648438 141.863281 17.46875 C 141.863281 8.316406 148.125 2.167969 157.4375 2.167969 C 161.570312 2.167969 166.03125 3.4375 168.882812 5.378906 L 165.808594 15.375 L 161.519531 15.375 L 160.738281 7.859375 L 159.699219 7.730469 C 158.84375 7.621094 158.082031 7.570312 157.375 7.570312 C 152.542969 7.570312 149.167969 10.902344 149.167969 15.671875 C 149.167969 20.515625 152.21875 23.898438 156.585938 23.898438 C 158.777344 23.898438 161.804688 22.617188 163.914062 20.890625 L 169.195312 26.59375 C 166.039062 30.074219 161.0625 32.355469 156.453125 32.355469 " fill-opacity="1" fill-rule="nonzero"/><g clip-path="url(#c04fff7aeb)"><path stroke-linecap="butt" transform="matrix(0.108223, 0, 0, -0.108223, 139.488637, 36.837076)" fill="none" stroke-linejoin="miter" d="M 149.463525 38.559311 C 61.212776 38.559311 6.421514 94.39731 6.421514 184.344495 C 6.421514 273.822453 67.529292 333.919588 158.559308 333.919588 C 200.681445 333.919588 246.557396 320.059348 273.916933 299.268988 L 241.937316 195.425468 L 188.806395 195.425468 L 181.515331 265.773407 L 178.411215 266.170445 C 170.831396 267.108899 164.153936 267.578126 157.945703 267.578126 C 117.556097 267.578126 90.340937 240.760004 90.340937 200.947908 C 90.340937 161.027528 115.173868 133.16267 150.618545 133.16267 C 171.011868 133.16267 201.258955 147.059004 218.945199 164.167739 L 278.212164 100.17241 C 247.965077 63.175675 196.674969 38.559311 149.463525 38.559311 Z M 149.463525 38.559311 " stroke="#fdfefe" stroke-width="10.32" stroke-opacity="1" stroke-miterlimit="4"/></g><g clip-path="url(#00548b8ab6)"><path fill="#563066" d="M 200.445312 4.125 L 200.386719 4.125 L 200.390625 4.050781 L 200.335938 4.050781 L 200.339844 3.976562 L 200.28125 3.976562 L 200.289062 3.90625 L 200.230469 3.90625 L 200.234375 3.828125 L 200.175781 3.828125 L 200.179688 3.757812 L 200.125 3.757812 L 200.128906 3.683594 L 200.070312 3.683594 L 200.078125 3.613281 L 200.019531 3.613281 L 200.023438 3.535156 L 199.964844 3.535156 L 199.96875 3.464844 L 199.917969 3.464844 L 199.921875 3.390625 L 199.863281 3.390625 L 199.871094 3.316406 L 199.8125 3.316406 L 199.816406 3.242188 L 199.757812 3.242188 L 199.765625 3.171875 L 199.707031 3.171875 L 199.710938 3.09375 L 199.652344 3.09375 L 199.65625 3.023438 L 199.601562 3.023438 L 199.605469 2.949219 L 199.546875 2.949219 L 199.554688 2.875 L 199.496094 2.875 L 199.5 2.800781 L 199.441406 2.800781 L 199.445312 2.730469 L 199.390625 2.730469 L 199.394531 2.65625 L 199.335938 2.65625 L 199.34375 2.582031 L 199.285156 2.582031 L 199.289062 2.507812 L 199.230469 2.507812 L 199.234375 2.4375 L 199.179688 2.4375 L 199.1875 2.359375 L 199.125 2.359375 L 199.136719 2.289062 L 199.078125 2.289062 L 199.082031 2.214844 L 199.023438 2.214844 L 199.027344 2.140625 L 198.972656 2.140625 L 198.976562 2.066406 L 198.917969 2.066406 L 198.921875 1.996094 L 198.867188 1.996094 L 198.871094 1.917969 L 198.8125 1.917969 L 198.820312 1.847656 L 198.761719 1.847656 L 198.765625 1.773438 L 198.707031 1.773438 L 198.710938 1.703125 L 198.65625 1.703125 L 198.660156 1.625 L 198.601562 1.625 L 198.609375 1.554688 L 198.550781 1.554688 L 198.554688 1.480469 L 198.496094 1.480469 L 198.5 1.40625 L 198.445312 1.40625 L 198.449219 1.332031 L 198.390625 1.332031 L 198.402344 1.261719 L 198.34375 1.261719 L 198.347656 1.183594 L 198.289062 1.183594 L 198.292969 1.113281 L 198.238281 1.113281 L 198.242188 1.039062 L 198.183594 1.039062 L 198.191406 0.964844 L 198.132812 0.964844 L 198.136719 0.890625 L 198.078125 0.890625 L 198.085938 0.820312 L 198.027344 0.820312 L 198.03125 0.746094 L 173.535156 0.246094 L 174.96875 10.941406 L 175.007812 10.9375 L 175.023438 11.015625 L 175.0625 11.011719 L 175.070312 11.089844 L 175.113281 11.085938 L 175.125 11.164062 L 175.167969 11.160156 L 175.175781 11.234375 L 175.21875 11.230469 L 175.226562 11.3125 L 175.273438 11.304688 L 175.28125 11.382812 L 175.324219 11.378906 L 175.335938 11.457031 L 175.378906 11.453125 L 175.386719 11.527344 L 175.429688 11.523438 L 175.4375 11.605469 L 175.484375 11.601562 L 175.492188 11.675781 L 175.535156 11.671875 L 175.542969 11.75 L 175.589844 11.746094 L 175.597656 11.824219 L 175.640625 11.820312 L 175.652344 11.898438 L 175.691406 11.894531 L 175.703125 11.96875 L 175.742188 11.964844 L 175.753906 12.046875 L 175.796875 12.042969 L 175.808594 12.117188 L 175.847656 12.113281 L 175.859375 12.191406 L 175.902344 12.1875 L 175.910156 12.265625 L 175.953125 12.257812 L 175.964844 12.339844 L 176.007812 12.335938 L 176.015625 12.410156 L 176.058594 12.40625 L 176.066406 12.484375 L 176.113281 12.480469 L 176.121094 12.558594 L 176.164062 12.554688 L 176.175781 12.632812 L 176.21875 12.628906 L 176.226562 12.703125 L 176.269531 12.699219 L 176.277344 12.78125 L 176.324219 12.777344 L 176.332031 12.851562 L 176.375 12.847656 L 176.382812 12.925781 L 176.429688 12.921875 L 176.4375 13 L 176.476562 12.996094 L 176.492188 13.074219 L 176.53125 13.070312 L 176.542969 13.144531 L 176.582031 13.140625 L 176.589844 13.222656 L 176.636719 13.214844 L 176.644531 13.292969 L 176.6875 13.289062 L 176.699219 13.367188 L 176.742188 13.363281 L 176.75 13.4375 L 176.792969 13.433594 L 176.804688 13.515625 L 176.847656 13.511719 L 176.855469 13.585938 L 176.898438 13.582031 L 176.90625 13.660156 L 176.953125 13.65625 L 176.960938 13.734375 L 177.003906 13.730469 L 177.015625 13.808594 L 177.058594 13.804688 L 177.066406 13.878906 L 177.109375 13.875 L 177.117188 13.957031 L 177.164062 13.953125 L 177.171875 14.027344 L 177.214844 14.023438 L 177.222656 14.101562 L 177.269531 14.097656 L 177.277344 14.171875 L 177.316406 14.167969 L 177.332031 14.25 L 177.371094 14.246094 L 177.382812 14.320312 L 177.421875 14.316406 L 177.429688 14.394531 L 181.136719 14.164062 L 179.429688 33.035156 L 179.488281 33.03125 L 179.480469 33.109375 L 179.539062 33.105469 L 179.535156 33.183594 L 179.59375 33.179688 L 179.585938 33.257812 L 179.648438 33.253906 L 179.640625 33.328125 L 179.699219 33.324219 L 179.691406 33.40625 L 179.75 33.402344 L 179.746094 33.476562 L 179.804688 33.472656 L 179.792969 33.550781 L 179.859375 33.546875 L 179.847656 33.625 L 179.90625 33.621094 L 179.898438 33.699219 L 179.960938 33.695312 L 179.953125 33.769531 L 180.011719 33.765625 L 180.003906 33.847656 L 180.0625 33.839844 L 180.058594 33.917969 L 180.117188 33.914062 L 180.109375 33.992188 L 180.171875 33.988281 L 180.164062 34.0625 L 180.222656 34.058594 L 180.214844 34.140625 L 180.273438 34.136719 L 180.269531 34.210938 L 180.328125 34.207031 L 180.320312 34.285156 L 180.378906 34.28125 L 180.375 34.359375 L 180.433594 34.355469 L 180.425781 34.433594 L 180.488281 34.429688 L 180.480469 34.503906 L 180.539062 34.5 L 180.53125 34.582031 L 180.589844 34.578125 L 180.585938 34.652344 L 180.644531 34.648438 L 180.632812 34.726562 L 180.699219 34.722656 L 180.6875 34.800781 L 180.746094 34.792969 L 180.738281 34.875 L 180.800781 34.871094 L 180.792969 34.945312 L 180.851562 34.941406 L 180.84375 35.019531 L 180.902344 35.015625 L 180.898438 35.09375 L 180.957031 35.089844 L 180.949219 35.167969 L 181.011719 35.164062 L 181.003906 35.238281 L 181.0625 35.234375 L 181.054688 35.316406 L 181.113281 35.3125 L 181.109375 35.386719 L 181.167969 35.382812 L 181.160156 35.460938 L 181.21875 35.457031 L 181.214844 35.535156 L 181.273438 35.527344 L 181.265625 35.609375 L 181.328125 35.605469 L 181.320312 35.679688 L 181.378906 35.675781 L 181.367188 35.757812 L 181.429688 35.75 L 181.421875 35.828125 L 181.484375 35.824219 L 181.472656 35.902344 L 181.535156 35.898438 L 181.527344 35.972656 L 181.585938 35.96875 L 181.578125 36.050781 L 181.640625 36.046875 L 181.632812 36.121094 L 181.691406 36.117188 L 181.683594 36.195312 L 181.742188 36.191406 L 181.738281 36.269531 L 181.796875 36.265625 L 181.789062 36.34375 L 181.851562 36.339844 L 181.84375 36.414062 L 181.902344 36.410156 L 181.894531 36.492188 L 195.5625 35.316406 L 192.714844 13.46875 L 199.796875 13.027344 L 200.5 4.199219 L 200.441406 4.199219 L 200.445312 4.125 " fill-opacity="1" fill-rule="nonzero"/></g><path fill="#f93d6e" d="M 183.988281 9.433594 L 177.117188 9.859375 L 176.121094 2.433594 L 197.121094 2.859375 L 196.660156 8.664062 L 189.261719 9.128906 L 192.109375 31.011719 L 181.953125 31.886719 L 183.988281 9.433594 " fill-opacity="1" fill-rule="nonzero"/><g clip-path="url(#aac0c31348)"><path stroke-linecap="butt" transform="matrix(0.10747, 0, 0, -0.10747, 173.535529, 36.49014)" fill="none" stroke-linejoin="miter" d="M 80.869351 248.305945 L 18.860797 244.489475 L 7.338692 330.705353 L 221.024674 326.307326 L 215.463532 256.484095 L 148.293657 252.304152 L 174.790864 48.868118 L 61.896042 39.163379 Z M 80.869351 248.305945 " stroke="#fdfefe" stroke-width="10.32" stroke-opacity="1" stroke-miterlimit="4"/></g><g clip-path="url(#330e50e43f)"><path fill="#563066" d="M 218.070312 20.289062 L 217.058594 20.054688 L 217.527344 17.804688 Z M 223.011719 36.082031 L 223.027344 36.160156 L 223.066406 36.15625 L 223.082031 36.234375 L 223.117188 36.226562 L 223.132812 36.304688 L 223.167969 36.300781 L 223.1875 36.382812 L 223.222656 36.371094 L 223.238281 36.453125 L 223.273438 36.449219 L 223.292969 36.527344 L 235.738281 34.109375 L 223.765625 3.589844 L 223.742188 3.597656 L 223.714844 3.515625 L 223.6875 3.519531 L 223.660156 3.445312 L 223.640625 3.449219 L 223.609375 3.371094 L 223.589844 3.375 L 223.554688 3.296875 L 223.535156 3.304688 L 223.503906 3.222656 L 223.480469 3.226562 L 223.449219 3.152344 L 223.429688 3.15625 L 223.402344 3.078125 L 223.378906 3.082031 L 223.347656 3.007812 L 223.324219 3.011719 L 223.296875 2.929688 L 223.273438 2.933594 L 223.242188 2.859375 L 223.222656 2.863281 L 223.191406 2.785156 L 223.167969 2.789062 L 223.136719 2.714844 L 223.117188 2.71875 L 223.085938 2.636719 L 223.066406 2.640625 L 223.03125 2.566406 L 223.011719 2.570312 L 222.980469 2.492188 L 222.957031 2.496094 L 222.929688 2.421875 L 222.90625 2.425781 L 222.878906 2.34375 L 222.855469 2.347656 L 222.824219 2.273438 L 222.800781 2.277344 L 222.773438 2.199219 L 222.75 2.203125 L 222.71875 2.128906 L 222.699219 2.132812 L 222.667969 2.050781 L 222.648438 2.058594 L 222.613281 1.980469 L 222.59375 1.984375 L 222.5625 1.90625 L 222.539062 1.910156 L 222.511719 1.835938 L 222.488281 1.839844 L 222.460938 1.761719 L 222.433594 1.765625 L 222.40625 1.6875 L 222.382812 1.691406 L 222.355469 1.613281 L 222.335938 1.617188 L 222.300781 1.542969 L 222.28125 1.546875 L 222.25 1.46875 L 222.226562 1.472656 L 222.195312 1.394531 L 222.175781 1.398438 L 222.144531 1.320312 L 222.125 1.324219 L 222.089844 1.25 L 222.070312 1.253906 L 222.042969 1.175781 L 222.015625 1.179688 L 221.988281 1.101562 L 221.964844 1.109375 L 221.9375 1.027344 L 221.917969 1.03125 L 221.882812 0.957031 L 221.863281 0.960938 L 221.832031 0.882812 L 221.808594 0.886719 L 221.777344 0.8125 L 221.757812 0.816406 L 221.726562 0.734375 L 221.707031 0.738281 L 221.671875 0.664062 L 221.652344 0.667969 L 221.625 0.589844 L 221.601562 0.59375 L 221.570312 0.519531 L 221.546875 0.523438 L 221.519531 0.441406 L 221.492188 0.445312 L 221.464844 0.371094 L 221.445312 0.375 L 221.414062 0.296875 L 221.394531 0.300781 L 221.359375 0.226562 L 221.339844 0.230469 L 221.308594 0.148438 L 209.933594 1.679688 L 197.949219 30.808594 L 198.023438 30.820312 L 198 30.878906 L 198.078125 30.890625 L 198.054688 30.953125 L 198.128906 30.964844 L 198.105469 31.023438 L 198.183594 31.035156 L 198.160156 31.097656 L 198.234375 31.113281 L 198.214844 31.171875 L 198.289062 31.183594 L 198.261719 31.246094 L 198.339844 31.257812 L 198.316406 31.316406 L 198.394531 31.328125 L 198.367188 31.390625 L 198.445312 31.40625 L 198.417969 31.464844 L 198.496094 31.476562 L 198.472656 31.539062 L 198.546875 31.550781 L 198.523438 31.609375 L 198.601562 31.621094 L 198.578125 31.683594 L 198.652344 31.699219 L 198.632812 31.757812 L 198.707031 31.769531 L 198.683594 31.832031 L 198.757812 31.84375 L 198.734375 31.902344 L 198.8125 31.914062 L 198.785156 31.976562 L 198.863281 31.992188 L 198.835938 32.050781 L 198.917969 32.0625 L 198.890625 32.125 L 198.964844 32.136719 L 198.941406 32.195312 L 199.019531 32.207031 L 198.996094 32.269531 L 199.070312 32.28125 L 199.046875 32.339844 L 199.125 32.355469 L 199.101562 32.417969 L 199.175781 32.429688 L 199.15625 32.488281 L 199.230469 32.5 L 199.203125 32.5625 L 199.28125 32.574219 L 199.253906 32.632812 L 199.335938 32.648438 L 199.308594 32.710938 L 199.382812 32.722656 L 199.363281 32.78125 L 199.4375 32.792969 L 199.414062 32.855469 L 199.488281 32.867188 L 199.46875 32.925781 L 199.542969 32.941406 L 199.519531 33.003906 L 199.59375 33.015625 L 199.570312 33.074219 L 199.648438 33.085938 L 199.621094 33.148438 L 199.699219 33.160156 L 199.675781 33.21875 L 199.753906 33.230469 L 199.726562 33.296875 L 199.800781 33.308594 L 199.777344 33.367188 L 199.855469 33.378906 L 199.832031 33.441406 L 199.90625 33.453125 L 199.882812 33.511719 L 199.960938 33.523438 L 199.9375 33.585938 L 200.011719 33.601562 L 199.992188 33.660156 L 200.066406 33.671875 L 200.039062 33.734375 L 200.117188 33.746094 L 200.089844 33.804688 L 200.171875 33.816406 L 200.144531 33.878906 L 200.222656 33.894531 L 200.199219 33.953125 L 200.273438 33.964844 L 200.25 34.027344 L 200.324219 34.039062 L 200.304688 34.097656 L 200.378906 34.109375 L 200.355469 34.171875 L 200.429688 34.1875 L 200.40625 34.246094 L 213.5625 36.523438 L 214.839844 30.519531 L 220.277344 30.519531 L 220.832031 33.085938 L 220.867188 33.082031 L 220.886719 33.160156 L 220.921875 33.152344 L 220.9375 33.230469 L 220.976562 33.226562 L 220.992188 33.308594 L 221.023438 33.300781 L 221.042969 33.378906 L 221.074219 33.375 L 221.097656 33.453125 L 221.128906 33.445312 L 221.148438 33.523438 L 221.183594 33.519531 L 221.199219 33.601562 L 221.234375 33.59375 L 221.25 33.671875 L 221.285156 33.667969 L 221.304688 33.746094 L 221.339844 33.738281 L 221.355469 33.816406 L 221.394531 33.8125 L 221.410156 33.894531 L 221.445312 33.882812 L 221.460938 33.964844 L 221.492188 33.960938 L 221.515625 34.039062 L 221.546875 34.03125 L 221.566406 34.109375 L 221.601562 34.105469 L 221.617188 34.1875 L 221.652344 34.175781 L 221.667969 34.257812 L 221.707031 34.253906 L 221.722656 34.332031 L 221.757812 34.324219 L 221.773438 34.402344 L 221.808594 34.398438 L 221.828125 34.476562 L 221.863281 34.46875 L 221.878906 34.550781 L 221.917969 34.546875 L 221.933594 34.625 L 221.964844 34.617188 L 221.984375 34.695312 L 222.015625 34.691406 L 222.039062 34.769531 L 222.070312 34.761719 L 222.085938 34.84375 L 222.125 34.839844 L 222.140625 34.917969 L 222.175781 34.910156 L 222.191406 34.988281 L 222.226562 34.984375 L 222.246094 35.0625 L 222.28125 35.054688 L 222.296875 35.136719 L 222.335938 35.128906 L 222.351562 35.210938 L 222.382812 35.203125 L 222.402344 35.28125 L 222.433594 35.277344 L 222.457031 35.355469 L 222.488281 35.347656 L 222.503906 35.429688 L 222.539062 35.421875 L 222.558594 35.503906 L 222.59375 35.496094 L 222.609375 35.574219 L 222.648438 35.570312 L 222.664062 35.648438 L 222.699219 35.640625 L 222.714844 35.71875 L 222.75 35.714844 L 222.769531 35.796875 L 222.800781 35.789062 L 222.820312 35.867188 L 222.855469 35.863281 L 222.875 35.941406 L 222.90625 35.933594 L 222.925781 36.011719 L 222.957031 36.007812 L 222.976562 36.089844 L 223.011719 36.082031 " fill-opacity="1" fill-rule="nonzero"/></g><path fill="#f93d6e" d="M 215.421875 9.417969 L 212.957031 21.09375 L 220.910156 22.953125 L 217.976562 9.410156 Z M 200.925781 30.167969 L 211.824219 3.6875 L 221.082031 2.441406 L 231.917969 30.066406 L 222.824219 31.832031 L 221.582031 26.085938 L 211.894531 26.085938 L 210.671875 31.855469 L 200.925781 30.167969 " fill-opacity="1" fill-rule="nonzero"/><g clip-path="url(#bdb98a7b3e)"><path stroke-linecap="butt" transform="matrix(0.107055, 0, 0, -0.107055, 197.950015, 36.527059)" fill="none" stroke-linejoin="miter" d="M 163.934938 256.912163 L 142.589224 155.693343 L 196.336637 143.104845 L 171.670479 256.948651 Z M 8.932218 58.378782 L 116.500019 319.635721 L 214.069999 332.771545 L 321.236427 59.509923 L 218.667537 39.587257 L 206.808807 94.684739 L 129.635843 94.684739 L 117.886578 39.51428 Z M 8.932218 58.378782 " stroke="#fdfefe" stroke-width="10.32" stroke-opacity="1" stroke-miterlimit="4"/></g></svg>